<svg xmlns="http://www.w3.org/2000/svg" viewBox="0 0 56 56" width="56" height="56">
  <rect width="56" height="56" rx="12" fill="#880E4F"/>
  <!-- Towel warmer rack — horizontal bars -->
  <rect x="16" y="12" width="3" height="36" rx="1.5" fill="#F8BBD0"/>
  <rect x="37" y="12" width="3" height="36" rx="1.5" fill="#F8BBD0"/>
  <!-- Horizontal bars -->
  <rect x="16" y="16" width="24" height="2.5" rx="1.25" fill="#F48FB1"/>
  <rect x="16" y="23" width="24" height="2.5" rx="1.25" fill="#F48FB1"/>
  <rect x="16" y="30" width="24" height="2.5" rx="1.25" fill="#F48FB1"/>
  <rect x="16" y="37" width="24" height="2.5" rx="1.25" fill="#F48FB1"/>
  <!-- Towel draped over top bar -->
  <path d="M12,14 Q14,10 18,14 L18,20 Q18,22 20,22 L36,22 Q38,22 38,20 L38,14 Q42,10 44,14 L44,22 Q44,24 42,24 L14,24 Q12,24 12,22 Z" fill="white" opacity="0.7"/>
  <!-- Heat waves -->
  <path d="M26,44 Q27,42 28,44 Q29,46 30,44" stroke="#FF8A80" stroke-width="1.2" fill="none" opacity="0.6"/>
  <path d="M22,46 Q23,44 24,46" stroke="#FF8A80" stroke-width="1" fill="none" opacity="0.4"/>
  <path d="M32,46 Q33,44 34,46" stroke="#FF8A80" stroke-width="1" fill="none" opacity="0.4"/>
</svg>