<svg width="32" height="32" viewBox="0 0 32 32" fill="none" xmlns="http://www.w3.org/2000/svg">
  <!-- Background -->
  <rect width="32" height="32" rx="4" fill="#455A64"/>

  <!-- Shower Arm (pipe from wall) -->
  <rect x="4" y="5" width="12" height="2.5" rx="1" fill="#B0BEC5"/>

  <!-- Shower Head (oval face) -->
  <ellipse cx="20" cy="8" rx="7" ry="5" fill="#78909C" stroke="#B0BEC5" stroke-width="1"/>

  <!-- Shower Holes -->
  <circle cx="17" cy="7" r="0.8" fill="#263238"/>
  <circle cx="20" cy="7" r="0.8" fill="#263238"/>
  <circle cx="23" cy="7" r="0.8" fill="#263238"/>
  <circle cx="18.5" cy="9.5" r="0.8" fill="#263238"/>
  <circle cx="21.5" cy="9.5" r="0.8" fill="#263238"/>

  <!-- Water Streams -->
  <line x1="17" y1="12" x2="16" y2="20" stroke="#00BCD4" stroke-width="1.2" stroke-linecap="round" opacity="0.8"/>
  <line x1="20" y1="12" x2="20" y2="21" stroke="#00BCD4" stroke-width="1.2" stroke-linecap="round" opacity="0.8"/>
  <line x1="23" y1="12" x2="24" y2="20" stroke="#00BCD4" stroke-width="1.2" stroke-linecap="round" opacity="0.8"/>

  <!-- Water Drops -->
  <path d="M16 22C16 22 14.5 24.5 14.5 25.5C14.5 26.3 15.2 27 16 27C16.8 27 17.5 26.3 17.5 25.5C17.5 24.5 16 22 16 22Z" fill="#00BCD4"/>
  <path d="M20 23C20 23 18.5 25.5 18.5 26.5C18.5 27.3 19.2 28 20 28C20.8 28 21.5 27.3 21.5 26.5C21.5 25.5 20 23 20 23Z" fill="#00BCD4"/>
  <path d="M24 22C24 22 22.5 24.5 22.5 25.5C22.5 26.3 23.2 27 24 27C24.8 27 25.5 26.3 25.5 25.5C25.5 24.5 24 22 24 22Z" fill="#00BCD4"/>
</svg>
